<svg xmlns="http://www.w3.org/2000/svg" viewBox="0 0 404.64 359.8">
    <defs>
        <style>
            .cls-1{fill:#fff;}
            .cls-2{fill:#000;}
        </style>
    </defs>
    <path class="cls-1"
          d="M399.64,46.53V253.91c-2.2-1.12-3.8-1.86-5.32-2.73-22.65-13.05-45.24-26.21-68-39.1-3.57-2-4.71-4.42-4.69-8.35q.16-53.47-.05-107c0-4,1.38-6.27,4.87-8.25,22.41-12.78,44.7-25.79,67-38.71C395.22,48.83,397,48,399.64,46.53Z"/>
    <path class="cls-1"
          d="M324.79,45.37c-.05-16-8-27.83-21.93-35.57C295.46,5.71,287.41,5,279.15,5c-77,.06-154,.23-231,0C20.18,4.91,4.82,27.47,5,47.52c.63,69,.22,138,.32,207,0,17.15,8,29.84,23.56,36.83,6.35,2.86,13.75,3.56,20.75,4.77,7.8,1.33,15.69,2.12,23.83,3.19V354.8c2.88-2.07,4.62-3.27,6.31-4.54,23-17.37,46-34.8,69.08-52a15.34,15.34,0,0,1,8.58-2.84c42.16-.18,84.33-.06,126.49-.15,22.86,0,40.82-17.64,40.87-40.41Q325,150.12,324.79,45.37Z"/>
    <path class="cls-2"
          d="M164.57,178.12c-14.08-.2-24.69-11.21-24.48-25.4A24.71,24.71,0,0,1,165.35,128c14.14.19,25,11.4,24.79,25.72C190,167.59,178.74,178.33,164.57,178.12Z"/>
    <path class="cls-2"
          d="M103.57,178.12c-14.08-.2-24.69-11.21-24.48-25.4A24.71,24.71,0,0,1,104.35,128c14.14.19,25,11.4,24.79,25.72C129,167.59,117.74,178.33,103.57,178.12Z"/>
    <path class="cls-2"
          d="M225.57,178.12c-14.08-.2-24.69-11.21-24.48-25.4A24.71,24.71,0,0,1,226.35,128c14.14.19,25,11.4,24.79,25.72C251,167.59,239.74,178.33,225.57,178.12Z"/>
</svg>