<svg xmlns="http://www.w3.org/2000/svg" viewBox="0 0 59.9 67.22"><defs><style>.cls-1{fill:#13bdb8;}</style></defs><g id="Layer_2" data-name="Layer 2"><g id="logo"><path class="cls-1" d="M0,15.41c.2-2.1.3-4.23.63-6.31C1.41,4.18,4.16,1.4,9.05.33a9.24,9.24,0,0,1,6.64.61,2.73,2.73,0,0,1,1.25,1.31,50.51,50.51,0,0,1,2.66,14.2,5.26,5.26,0,0,1-3,5.08c-.73.41-1.49.75-2.24,1.14-1.86,1-2.25,1.71-1.92,3.77a29.8,29.8,0,0,0,3.63,10.35c1.7,2.88,3.75,5.56,5.7,8.28a15.65,15.65,0,0,0,2,2,2.49,2.49,0,0,0,3.09.37c.92-.48,1.81-1,2.74-1.49a5.27,5.27,0,0,1,6,.41A53.59,53.59,0,0,1,46,56.81a3.25,3.25,0,0,1,.29,2.47C44.76,65,37.77,68.66,32.2,66.67a35.85,35.85,0,0,1-13.44-9C12,50.84,6.46,43.17,3.21,34A63.58,63.58,0,0,1,0,15.41Z"/><path class="cls-1" d="M59.9,32.88c-.38,2.52-.7,5-1.14,7.56-.26,1.49-1.08,2.11-2.12,1.84s-1.3-1.12-1-2.57C58.14,27.51,54.56,17.4,45.08,9.4A28.44,28.44,0,0,0,34.49,4a2.38,2.38,0,0,1-1.38-.8,1.93,1.93,0,0,1,0-1.64A1.9,1.9,0,0,1,34.52.79a9.15,9.15,0,0,1,2.42.61A33.65,33.65,0,0,1,59.9,32.88Z"/><path class="cls-1" d="M51.59,34.48c-.3,2.05-.55,4.11-.92,6.15-.24,1.29-1.1,1.88-2.07,1.61s-1.32-1.1-1.06-2.32c2.76-12.61-4-24.11-16.42-28a2.71,2.71,0,0,1-1.58-1.38c-.44-1.2.84-2.12,2.29-1.72a26.13,26.13,0,0,1,12.54,7.61A27.63,27.63,0,0,1,51.59,34.48Z"/><path class="cls-1" d="M43.71,35.16c-.19,1.35-.32,2.62-.56,3.87s-1,1.95-2,1.75S39.74,39.73,40,38.32a16,16,0,0,0-2.54-12.44,15.19,15.19,0,0,0-9.25-6.57c-1.32-.34-1.9-1-1.67-2s1.09-1.44,2.4-1.09c7.62,2.06,12.16,7.14,14.11,14.65A40.52,40.52,0,0,1,43.71,35.16Z"/><path class="cls-1" d="M36.46,35.61c-.15,1-.25,2-.46,2.94A1.58,1.58,0,0,1,34,40c-.94-.22-1.35-1-1.13-2.15a9.8,9.8,0,0,0-5.23-11c-.61-.29-1.26-.48-1.9-.72a1.53,1.53,0,0,1-1.09-2A1.6,1.6,0,0,1,26.76,23C32.23,24.31,36.37,29.72,36.46,35.61Z"/></g></g></svg>