<svg id="logo" xmlns="http://www.w3.org/2000/svg" viewBox="0 0 1080 1080"><defs><style>.cls-1{fill:#485dd5;}</style></defs><path class="cls-1" d="M91.91,267.9c3-31.42,4.49-63.29,9.43-94.4C113,99.89,154.16,58.29,227.31,42.3a138.18,138.18,0,0,1,99.34,9.11A40.82,40.82,0,0,1,345.35,71a755.43,755.43,0,0,1,39.8,212.47,78.67,78.67,0,0,1-44.89,76c-10.92,6.14-22.29,11.23-33.5,17.06-27.83,15-33.66,25.59-28.73,56.41a446.38,446.38,0,0,0,54.3,154.83c25.44,43.1,56.11,83.18,85.29,123.88a233.79,233.79,0,0,0,29.93,29.93,37.27,37.27,0,0,0,46.22,5.53c13.76-7.18,27.08-15,41-22.29A78.85,78.85,0,0,1,624.54,731,801.1,801.1,0,0,1,780.2,887.3a48.56,48.56,0,0,1,4.33,37c-22.89,85.58-127.46,140.34-210.79,110.56A536.31,536.31,0,0,1,372.66,900.15C271.53,798,188.62,683.19,140,546A951.17,951.17,0,0,1,91.91,267.9Z"/><path class="cls-1" d="M988.09,529.27C982.4,567,977.61,604.08,971,642.37c-3.89,22.3-16.16,31.57-31.72,27.53s-19.45-16.75-15-38.43c37.4-182.55-16.16-333.79-158-453.48a425.43,425.43,0,0,0-158.43-80.8,35.52,35.52,0,0,1-20.64-12,28.84,28.84,0,0,1,0-24.53,28.39,28.39,0,0,1,21.08-11.51,136.73,136.73,0,0,1,36.21,9.11A503.46,503.46,0,0,1,988.09,529.27Z"/><path class="cls-1" d="M863.76,553.21c-4.49,30.67-8.23,61.5-13.76,92-3.6,19.3-16.46,28.13-31,24.09s-19.75-16.46-15.86-34.7c41.3-188.67-59.85-360.72-245.65-419A40.46,40.46,0,0,1,533.87,195c-6.59-18,12.56-31.72,34.26-25.74a390.89,390.89,0,0,1,187.6,113.86A413.35,413.35,0,0,1,863.76,553.21Z"/><path class="cls-1" d="M745.87,563.39c-2.84,20.19-4.79,39.2-8.38,57.9s-15,29.16-29.92,26.17-21.1-15.7-17.15-36.79a239.4,239.4,0,0,0-38.07-186.14A227.27,227.27,0,0,0,514,326.24c-19.76-5.08-28.43-15-25-29.92s16.31-21.55,35.91-16.31c114,30.81,182,106.83,211.11,219.19A612.14,612.14,0,0,1,745.87,563.39Z"/><path class="cls-1" d="M637.39,570.12c-2.24,15-3.74,29.92-6.88,44a23.65,23.65,0,0,1-29.93,21.69c-14.06-3.29-20.2-15-16.9-32.17a146.63,146.63,0,0,0-78.26-164.58c-9.13-4.34-18.85-7.19-28.43-10.78a22.89,22.89,0,0,1-17-27.53c.19-.8.42-1.6.69-2.38a23.94,23.94,0,0,1,28.84-17.73,25.27,25.27,0,0,1,2.73.82C574.11,401.06,636.05,482,637.39,570.12Z"/></svg>